HIERARCHY
ROOT Hips
{
	OFFSET 0.000000 71.206352 2.654994
	CHANNELS 6 Xposition Yposition Zposition Xrotation Yrotation Zrotation
	JOINT Pelvis
	{
		OFFSET 0.000000 0.000000 0.000000
		CHANNELS 3 Xrotation Yrotation Zrotation
		JOINT LeftUpLeg
		{
			OFFSET 6.797117 -2.508530 -1.318654
			CHANNELS 3 Xrotation Yrotation Zrotation
			JOINT LeftLeg
			{
				OFFSET 2.604768 -29.125713 0.690240
				CHANNELS 3 Xrotation Yrotation Zrotation
				JOINT LeftFoot
				{
					OFFSET 2.495626 -29.462662 -0.266779
					CHANNELS 3 Xrotation Yrotation Zrotation
					JOINT LeftToeBase
					{
						OFFSET 3.145477 -8.630991 16.059889
						CHANNELS 3 Xrotation Yrotation Zrotation
						End Site
						{
							OFFSET 0.000000 18.501570 0.000000
						}
					}
				}
			}
			JOINT Left_ShortSleeve
			{
				OFFSET 1.173896 -10.418373 1.153777
				CHANNELS 3 Xrotation Yrotation Zrotation
				End Site
				{
					OFFSET 0.000000 19.898849 0.000000
				}
			}
		}
		JOINT RightUpLeg
		{
			OFFSET -6.797117 -2.508530 -1.318654
			CHANNELS 3 Xrotation Yrotation Zrotation
			JOINT RightLeg
			{
				OFFSET -2.618195 -29.124561 0.688025
				CHANNELS 3 Xrotation Yrotation Zrotation
				JOINT RightFoot
				{
					OFFSET -2.482200 -29.463818 -0.264565
					CHANNELS 3 Xrotation Yrotation Zrotation
					JOINT RightToeBase
					{
						OFFSET -3.115344 -8.682778 16.113401
						CHANNELS 3 Xrotation Yrotation Zrotation
						End Site
						{
							OFFSET 0.000000 18.567112 0.000000
						}
					}
				}
			}
			JOINT Right_ShortSleeve
			{
				OFFSET -1.173896 -10.418373 1.153777
				CHANNELS 3 Xrotation Yrotation Zrotation
				End Site
				{
					OFFSET 0.000000 19.898849 0.000000
				}
			}
		}
	}
	JOINT Spine
	{
		OFFSET 0.000000 13.368111 0.470529
		CHANNELS 3 Xrotation Yrotation Zrotation
		JOINT Spine1
		{
			OFFSET 0.146996 13.837402 0.538789
			CHANNELS 3 Xrotation Yrotation Zrotation
			JOINT Spine2
			{
				OFFSET 0.167995 16.242874 -1.435485
				CHANNELS 3 Xrotation Yrotation Zrotation
				JOINT Neck
				{
					OFFSET 0.217193 18.631516 -1.679142
					CHANNELS 3 Xrotation Yrotation Zrotation
					JOINT Head
					{
						OFFSET 0.000000 6.599380 1.385859
						CHANNELS 3 Xrotation Yrotation Zrotation
						JOINT Hat
						{
							OFFSET -0.532184 27.220581 -10.096070
							CHANNELS 3 Xrotation Yrotation Zrotation
							End Site
							{
								OFFSET 0.000000 22.029861 0.000000
							}
						}
						JOINT HairD
						{
							OFFSET -10.777430 17.437408 -1.325938
							CHANNELS 3 Xrotation Yrotation Zrotation
							JOINT HairD1
							{
								OFFSET -3.290256 -11.051163 1.062188
								CHANNELS 3 Xrotation Yrotation Zrotation
								End Site
								{
									OFFSET 0.000000 11.579391 0.000000
								}
							}
						}
						JOINT HairB
						{
							OFFSET -10.777430 17.437408 1.467893
							CHANNELS 3 Xrotation Yrotation Zrotation
							JOINT HairB1
							{
								OFFSET -1.561211 -12.956329 3.590162
								CHANNELS 3 Xrotation Yrotation Zrotation
								End Site
								{
									OFFSET 0.000000 13.534882 0.000000
								}
							}
						}
						JOINT HairA
						{
							OFFSET 9.713062 17.437408 1.467893
							CHANNELS 3 Xrotation Yrotation Zrotation
							JOINT HairA1
							{
								OFFSET 1.561211 -12.956329 3.590162
								CHANNELS 3 Xrotation Yrotation Zrotation
								End Site
								{
									OFFSET 0.000000 13.534882 0.000000
								}
							}
						}
						JOINT HairC
						{
							OFFSET 9.713062 17.437408 -1.325938
							CHANNELS 3 Xrotation Yrotation Zrotation
							JOINT HairC1
							{
								OFFSET 3.290255 -11.051163 1.062188
								CHANNELS 3 Xrotation Yrotation Zrotation
								End Site
								{
									OFFSET 0.000000 11.579391 0.000000
								}
							}
						}
					}
				}
				JOINT LeftShoulder
				{
					OFFSET 5.101767 15.108002 -2.763695
					CHANNELS 3 Xrotation Yrotation Zrotation
					JOINT LeftArm
					{
						OFFSET 9.825546 2.506256 -1.597438
						CHANNELS 3 Xrotation Yrotation Zrotation
						JOINT LeftForeArm
						{
							OFFSET 21.924620 0.000000 -1.351923
							CHANNELS 3 Xrotation Yrotation Zrotation
							JOINT LeftHand
							{
								OFFSET 33.867149 -0.000336 -0.895185
								CHANNELS 3 Xrotation Yrotation Zrotation
								JOINT LeftHandThumb1
								{
									OFFSET 6.800735 -1.610214 3.624442
									CHANNELS 3 Xrotation Yrotation Zrotation
									JOINT LeftHandThumb2
									{
										OFFSET 2.133118 -1.047562 2.197256
										CHANNELS 3 Xrotation Yrotation Zrotation
										JOINT LeftHandThumb3
										{
											OFFSET 2.939781 -1.955193 1.239051
											CHANNELS 3 Xrotation Yrotation Zrotation
											End Site
											{
												OFFSET 0.000000 3.741707 0.000000
											}
										}
									}
								}
								JOINT LeftHandIndex1
								{
									OFFSET 14.184837 0.837936 3.778969
									CHANNELS 3 Xrotation Yrotation Zrotation
									JOINT LeftHandIndex2
									{
										OFFSET 3.454674 -0.747025 -0.349037
										CHANNELS 3 Xrotation Yrotation Zrotation
										JOINT LeftHandIndex3
										{
											OFFSET 2.708313 -1.000595 -0.200658
											CHANNELS 3 Xrotation Yrotation Zrotation
											End Site
											{
												OFFSET 0.000000 2.894211 0.000000
											}
										}
									}
								}
								JOINT LeftHandMiddle1
								{
									OFFSET 13.765343 0.551865 -0.058510
									CHANNELS 3 Xrotation Yrotation Zrotation
									JOINT LeftHandMiddle2
									{
										OFFSET 3.329315 -0.830414 -0.218270
										CHANNELS 3 Xrotation Yrotation Zrotation
										JOINT LeftHandMiddle3
										{
											OFFSET 3.521812 -1.082275 -0.230450
											CHANNELS 3 Xrotation Yrotation Zrotation
											End Site
											{
												OFFSET 0.000000 3.691559 0.000000
											}
										}
									}
								}
								JOINT LeftHandRing1
								{
									OFFSET 13.969360 -0.122360 -3.062001
									CHANNELS 3 Xrotation Yrotation Zrotation
									JOINT LeftHandRing2
									{
										OFFSET 3.063065 -0.760193 -0.203345
										CHANNELS 3 Xrotation Yrotation Zrotation
										JOINT LeftHandRing3
										{
											OFFSET 3.200409 -0.861923 -0.256632
											CHANNELS 3 Xrotation Yrotation Zrotation
											End Site
											{
												OFFSET 0.000000 3.324356 0.000000
											}
										}
									}
								}
								JOINT LeftHandPinky1
								{
									OFFSET 13.134644 -0.420990 -5.726565
									CHANNELS 3 Xrotation Yrotation Zrotation
									JOINT LeftHandPinky2
									{
										OFFSET 2.705887 -0.872284 -0.187246
										CHANNELS 3 Xrotation Yrotation Zrotation
										JOINT LeftHandPinky3
										{
											OFFSET 2.653091 -0.882462 -0.224701
											CHANNELS 3 Xrotation Yrotation Zrotation
											End Site
											{
												OFFSET 0.000000 2.805023 0.000000
											}
										}
									}
								}
							}
							JOINT Left_Sleeve
							{
								OFFSET 6.611050 -0.646652 0.631114
								CHANNELS 3 Xrotation Yrotation Zrotation
								End Site
								{
									OFFSET 0.000000 20.275742 0.000000
								}
							}
						}
					}
				}
				JOINT RightShoulder
				{
					OFFSET -5.731749 15.108002 -2.763695
					CHANNELS 3 Xrotation Yrotation Zrotation
					JOINT RightArm
					{
						OFFSET -9.825546 2.506256 -1.597438
						CHANNELS 3 Xrotation Yrotation Zrotation
						JOINT RightForeArm
						{
							OFFSET -21.924620 0.000000 -1.351923
							CHANNELS 3 Xrotation Yrotation Zrotation
							JOINT RightHand
							{
								OFFSET -33.867149 -0.000336 -0.895185
								CHANNELS 3 Xrotation Yrotation Zrotation
								JOINT RightHandThumb1
								{
									OFFSET -6.800735 -1.610214 3.624442
									CHANNELS 3 Xrotation Yrotation Zrotation
									JOINT RightHandThumb2
									{
										OFFSET -2.133118 -1.047562 2.197256
										CHANNELS 3 Xrotation Yrotation Zrotation
										JOINT RightHandThumb3
										{
											OFFSET -2.939781 -1.955193 1.239051
											CHANNELS 3 Xrotation Yrotation Zrotation
											End Site
											{
												OFFSET 0.000000 3.741707 0.000000
											}
										}
									}
								}
								JOINT RightHandIndex1
								{
									OFFSET -14.184837 0.837936 3.778969
									CHANNELS 3 Xrotation Yrotation Zrotation
									JOINT RightHandIndex2
									{
										OFFSET -3.454674 -0.747025 -0.349037
										CHANNELS 3 Xrotation Yrotation Zrotation
										JOINT RightHandIndex3
										{
											OFFSET -2.708313 -1.000595 -0.200658
											CHANNELS 3 Xrotation Yrotation Zrotation
											End Site
											{
												OFFSET 0.000000 2.894211 0.000000
											}
										}
									}
								}
								JOINT RightHandMiddle1
								{
									OFFSET -13.765343 0.551865 -0.058511
									CHANNELS 3 Xrotation Yrotation Zrotation
									JOINT RightHandMiddle2
									{
										OFFSET -3.329315 -0.830414 -0.218269
										CHANNELS 3 Xrotation Yrotation Zrotation
										JOINT RightHandMiddle3
										{
											OFFSET -3.521812 -1.082275 -0.230450
											CHANNELS 3 Xrotation Yrotation Zrotation
											End Site
											{
												OFFSET 0.000000 3.691559 0.000000
											}
										}
									}
								}
								JOINT RightHandRing1
								{
									OFFSET -13.969353 -0.122360 -3.062001
									CHANNELS 3 Xrotation Yrotation Zrotation
									JOINT RightHandRing2
									{
										OFFSET -3.063072 -0.760193 -0.203345
										CHANNELS 3 Xrotation Yrotation Zrotation
										JOINT RightHandRing3
										{
											OFFSET -3.200409 -0.861923 -0.256632
											CHANNELS 3 Xrotation Yrotation Zrotation
											End Site
											{
												OFFSET 0.000000 3.324356 0.000000
											}
										}
									}
								}
								JOINT RightHandPinky1
								{
									OFFSET -13.134644 -0.420990 -5.726565
									CHANNELS 3 Xrotation Yrotation Zrotation
									JOINT RightHandPinky2
									{
										OFFSET -2.705887 -0.872284 -0.187247
										CHANNELS 3 Xrotation Yrotation Zrotation
										JOINT RightHandPinky3
										{
											OFFSET -2.653091 -0.882462 -0.224700
											CHANNELS 3 Xrotation Yrotation Zrotation
											End Site
											{
												OFFSET 0.000000 2.805023 0.000000
											}
										}
									}
								}
							}
							JOINT Right_Sleeve
							{
								OFFSET -6.611050 -0.646652 0.631114
								CHANNELS 3 Xrotation Yrotation Zrotation
								End Site
								{
									OFFSET 0.000000 20.275742 0.000000
								}
							}
						}
					}
				}
				JOINT Bind_Right_JacketString
				{
					OFFSET -3.534774 11.969604 7.200667
					CHANNELS 3 Xrotation Yrotation Zrotation
					JOINT Bind_Right_JacketString1
					{
						OFFSET -0.319887 -6.102631 2.794061
						CHANNELS 3 Xrotation Yrotation Zrotation
						End Site
						{
							OFFSET 0.000000 6.719467 0.000000
						}
					}
				}
				JOINT Bind_Left_JacketString
				{
					OFFSET 2.904793 11.969604 7.200667
					CHANNELS 3 Xrotation Yrotation Zrotation
					JOINT Bind_Left_JacketString1
					{
						OFFSET 0.364847 -5.904457 3.186764
						CHANNELS 3 Xrotation Yrotation Zrotation
						End Site
						{
							OFFSET 0.000000 6.719460 0.000000
						}
					}
				}
				JOINT HairE
				{
					OFFSET 5.915198 17.612656 -11.592244
					CHANNELS 3 Xrotation Yrotation Zrotation
					JOINT HairE1
					{
						OFFSET 0.289203 -7.171906 -1.284488
						CHANNELS 3 Xrotation Yrotation Zrotation
						End Site
						{
							OFFSET 0.000000 7.291763 0.000000
						}
					}
				}
				JOINT HairF
				{
					OFFSET -0.864797 17.612656 -11.592244
					CHANNELS 3 Xrotation Yrotation Zrotation
					JOINT HairF1
					{
						OFFSET -0.000000 -14.087097 -2.127508
						CHANNELS 3 Xrotation Yrotation Zrotation
						End Site
						{
							OFFSET 0.000000 14.246841 0.000000
						}
					}
				}
				JOINT HairG
				{
					OFFSET -8.087694 17.612656 -11.592244
					CHANNELS 3 Xrotation Yrotation Zrotation
					JOINT HairG1
					{
						OFFSET -0.293551 -6.081375 -0.910136
						CHANNELS 3 Xrotation Yrotation Zrotation
						End Site
						{
							OFFSET 0.000000 6.156113 0.000000
						}
					}
				}
			}
		}
	}
	JOINT Pouch
	{
		OFFSET 0.000000 4.394547 10.847303
		CHANNELS 3 Xrotation Yrotation Zrotation
		End Site
		{
			OFFSET 0.000000 21.880577 0.000000
		}
	}
	JOINT Bag
	{
		OFFSET -13.229022 4.813034 -0.593262
		CHANNELS 3 Xrotation Yrotation Zrotation
		End Site
		{
			OFFSET 0.000000 21.880577 0.000000
		}
	}
	JOINT OccupyGuyFacialAnim_Joint
	{
		OFFSET 1.000000 -70.206352 -1.654994
		CHANNELS 3 Xrotation Yrotation Zrotation
		End Site
		{
			OFFSET 0.000000 21.880581 0.000000
		}
	}
}
MOTION
Frames: 4
Frame Time: 0.016667
1.158695 67.640648 -4.582136 -8.573887 0.573092 -5.865207 0.000001 -0.000000 0.000000 -18.012875 11.427656 5.125047 42.157905 11.814789 3.035493 -18.199217 5.739030 -0.271813 0.000000 0.000000 0.000000 0.000000 -0.000001 -0.000000 -15.485372 -7.076560 3.198443 27.877129 -10.765459 -0.154436 -3.069268 -11.676729 0.843231 0.000000 0.000000 0.000000 -0.000002 -0.000000 -0.000000 22.183346 0.207490 -10.968130 4.323409 0.146923 0.771314 4.317599 0.254436 0.769913 6.233861 2.141237 -5.361031 32.391390 5.275865 -5.339071 -0.000002 0.000001 0.000002 -0.000002 0.000001 0.000002 -0.000000 0.000000 0.000001 -0.000002 0.000001 0.000002 -0.000002 0.000001 0.000002 -0.000002 0.000001 0.000002 -0.000002 0.000001 0.000002 -0.000002 0.000001 0.000002 -0.000000 0.000000 0.000001 0.683443 -4.757085 -8.732246 -20.963427 -18.361017 -57.162379 0.000026 -10.725196 0.000509 2.991615 -4.418917 7.179939 5.179790 29.397954 8.031948 -10.252731 -8.824364 5.810762 0.000001 -0.000001 0.000000 -0.717705 -6.109254 -2.577388 -0.608160 1.250510 -12.340377 0.000001 -0.000001 0.000000 -0.587998 -3.699815 -4.212395 -1.965550 0.201958 -28.883975 -0.000002 -0.000002 0.000001 -0.746009 -3.213256 -8.694331 -3.621243 0.382386 -45.149644 0.000001 0.000000 0.000000 1.116527 0.727256 -8.381861 -5.690136 -2.556301 -57.417849 -0.000001 -0.000002 -0.000003 0.000002 -0.000001 0.000000 -0.194353 2.291443 -1.723773 -18.474719 11.146668 80.932339 0.000020 10.011877 -0.000506 27.768011 9.394605 -8.053112 4.243740 -31.944180 -8.594148 -11.842229 11.220148 -6.346345 -0.000001 0.000001 -0.000000 0.935826 -0.515069 8.806151 -0.108608 -1.274901 6.229326 -0.000002 -0.000001 0.000001 1.865724 -2.561314 12.486966 -1.399373 -0.059849 20.490195 0.000001 -0.000000 0.000000 2.404528 -2.581031 19.447355 -2.848761 0.112926 33.932779 0.000002 -0.000001 -0.000000 2.965813 -2.396460 21.095157 -3.644334 -0.494825 43.612547 0.000001 0.000001 -0.000001 -0.000000 -0.000000 0.000001 0.000001 0.000000 -0.000000 0.000001 0.000000 -0.000000 0.000001 0.000000 -0.000000 0.000001 0.000000 0.000001 0.000001 0.000000 0.000001 0.000001 -0.000000 0.000001 0.000001 0.000000 -0.000000 0.000001 0.000000 -0.000000 0.000001 0.000000 0.000001 0.000001 -0.000000 0.000001 0.000001 -0.000000 0.000000 0.000001 -0.000000 0.000000 0.000001 -0.000000 0.000000 
1.218086 67.638412 -4.559413 -8.958843 0.885391 -5.877116 0.000001 -0.000000 0.000000 -17.666347 11.447005 5.112755 42.228471 11.871274 3.066352 -18.266906 5.431534 -0.243348 0.000000 -0.000002 -0.000000 -0.000001 -0.000000 0.000001 -15.039513 -7.277333 3.054280 27.951671 -10.767184 -0.063238 -3.153664 -11.695852 0.883913 -0.000000 -0.000000 0.000000 -0.000001 -0.000000 -0.000000 22.298058 0.447691 -11.051147 4.244833 0.179286 0.853543 4.237874 0.289959 0.852521 6.296056 2.046060 -5.379581 32.415142 4.881098 -5.563028 -0.000002 0.000000 -0.000001 -0.000002 0.000000 -0.000001 0.000000 0.000000 -0.000000 -0.000002 0.000000 -0.000000 -0.000002 0.000000 -0.000000 -0.000002 0.000000 -0.000000 -0.000002 0.000000 -0.000000 -0.000002 0.000000 -0.000001 0.000000 0.000000 -0.000000 0.673840 -4.345955 -8.751114 -22.584024 -19.719079 -59.061138 0.000022 -6.338276 0.000519 2.754049 -2.878174 9.939680 5.214892 29.481115 8.001002 -10.252731 -8.824364 5.810765 -0.000001 -0.000000 -0.000003 -0.555904 -5.765428 -1.972381 -0.609097 1.250543 -12.351881 -0.000000 0.000001 -0.000001 -0.485924 -3.567230 -3.537422 -1.989997 0.211394 -29.263580 0.000001 -0.000000 -0.000002 -0.730969 -3.337064 -7.927700 -3.673198 0.427895 -45.990707 0.000001 0.000000 -0.000000 0.978715 0.438420 -7.532543 -5.747678 -2.469712 -58.635630 -0.000002 -0.000000 0.000000 0.000000 -0.000000 -0.000000 -0.200338 2.255768 -1.862734 -19.007385 11.825843 81.795559 0.000024 9.274264 -0.000507 29.800764 10.416628 -5.858786 4.241695 -31.917839 -8.588746 -11.841905 11.218096 -6.346899 -0.000000 0.000001 0.000002 0.989329 -0.658466 9.090984 -0.108619 -1.274919 6.229463 -0.000001 -0.000001 -0.000001 1.905446 -2.611946 12.762903 -1.399583 -0.059898 20.493296 -0.000003 -0.000000 0.000000 2.390884 -2.529556 19.709418 -2.848899 0.112824 33.934941 0.000001 -0.000000 -0.000002 2.891145 -2.274006 21.345634 -3.644346 -0.494813 43.612575 -0.000001 0.000000 -0.000000 -0.000001 0.000000 0.000001 -0.000001 0.000000 -0.000001 -0.000001 0.000000 -0.000001 -0.000001 0.000000 -0.000001 -0.000001 0.000000 -0.000000 -0.000001 0.000000 -0.000000 -0.000000 0.000001 0.000002 -0.000001 0.000000 -0.000001 -0.000001 0.000000 -0.000001 -0.000001 0.000000 -0.000000 -0.000000 0.000001 0.000002 0.000001 -0.000000 0.000000 0.000001 -0.000000 0.000000 0.000001 -0.000000 0.000000 
1.271663 67.661133 -4.513733 -9.274174 1.252495 -5.859133 0.000001 -0.000000 0.000000 -17.305024 11.487028 5.085334 42.162327 11.916296 3.086570 -18.280224 5.051749 -0.204259 0.000000 -0.000002 0.000000 0.000001 0.000000 -0.000000 -14.558938 -7.475269 2.897182 27.890061 -10.771403 0.028990 -3.206201 -11.764202 0.924795 0.000000 -0.000000 -0.000000 0.000001 0.000000 0.000000 22.327207 0.614748 -11.116481 4.133714 0.201982 0.930888 4.125798 0.314542 0.929987 6.334329 1.940318 -5.391292 32.282640 4.521308 -5.961185 0.000003 -0.000002 -0.000000 0.000003 -0.000002 -0.000000 0.000001 0.000000 0.000001 0.000003 -0.000002 0.000002 0.000003 -0.000002 0.000002 0.000003 -0.000002 0.000002 0.000003 -0.000002 0.000002 0.000003 -0.000002 -0.000000 0.000001 0.000000 0.000001 0.662095 -3.939410 -8.761855 -23.722196 -20.854451 -60.759170 0.000025 -2.823839 0.000513 2.157241 -0.841511 12.227158 5.249641 29.529749 7.959117 -10.252729 -8.824364 5.810763 -0.000001 0.000000 0.000002 -0.424987 -5.386876 -1.597524 -0.610079 1.250584 -12.364074 -0.000002 0.000000 0.000000 -0.386218 -3.364601 -3.042404 -2.016459 0.221843 -29.675738 -0.000001 -0.000000 0.000000 -0.685660 -3.349065 -7.279575 -3.728870 0.478185 -46.904080 0.000001 0.000000 0.000001 0.906856 0.287883 -6.758051 -5.808056 -2.374297 -59.958221 -0.000001 0.000001 -0.000000 0.000001 0.000000 -0.000000 -0.201597 2.145568 -1.996689 -19.340338 12.367263 82.583530 0.000019 8.840454 -0.000471 31.670245 11.458580 -3.568839 4.237441 -31.848554 -8.574841 -11.842407 11.218022 -6.346640 0.000002 -0.000001 -0.000002 1.031753 -0.762200 9.471527 -0.108619 -1.274910 6.229649 0.000003 -0.000000 -0.000000 1.944176 -2.649675 13.093117 -1.399782 -0.059947 20.496189 -0.000001 -0.000000 -0.000000 2.390752 -2.497932 19.974948 -2.849026 0.112765 33.936816 0.000001 0.000002 0.000002 2.846384 -2.195551 21.559311 -3.644332 -0.494823 43.612599 0.000001 -0.000001 -0.000003 0.000001 -0.000000 0.000002 0.000002 0.000000 -0.000000 0.000002 0.000000 -0.000000 0.000002 0.000000 -0.000000 0.000002 0.000000 0.000001 0.000002 0.000000 0.000001 0.000003 0.000000 0.000001 0.000002 0.000000 -0.000000 0.000002 0.000000 -0.000000 0.000002 0.000000 0.000001 0.000003 0.000000 0.000001 0.000001 -0.000000 0.000000 0.000001 -0.000000 0.000000 0.000001 -0.000000 0.000000 
1.322141 67.710472 -4.443470 -9.531929 1.646434 -5.817710 -0.000000 0.000000 -0.000000 -16.909411 11.555031 5.044482 41.954171 11.949571 3.099168 -18.242505 4.621939 -0.156659 -0.000000 0.000000 0.000000 -0.000001 -0.000000 0.000000 -14.025019 -7.652085 2.747540 27.670042 -10.782448 0.105015 -3.212091 -11.876213 0.973463 -0.000000 0.000002 0.000000 0.000000 -0.000000 -0.000000 22.272000 0.705779 -11.160428 3.999446 0.214995 0.991225 3.990886 0.327721 0.990232 6.336054 1.838044 -5.398900 31.969360 4.256893 -6.515821 0.000001 -0.000000 -0.000000 0.000001 -0.000000 -0.000000 0.000001 0.000001 -0.000000 0.000001 -0.000000 -0.000000 0.000001 -0.000000 -0.000000 0.000001 -0.000000 -0.000000 0.000001 -0.000000 -0.000000 0.000001 -0.000000 -0.000000 0.000001 0.000001 -0.000000 0.649432 -3.574097 -8.776919 -24.188097 -21.681829 -62.115625 0.000015 -0.490684 0.000504 1.384630 1.431857 13.536996 5.284032 29.541514 7.907629 -10.252732 -8.824364 5.810765 -0.000000 -0.000000 -0.000002 -0.336170 -5.008302 -1.515248 -0.610907 1.250616 -12.374312 -0.000001 0.000000 0.000000 -0.300042 -3.113499 -2.789913 -2.043083 0.232566 -30.091519 0.000001 -0.000000 0.000001 -0.620757 -3.254438 -6.812574 -3.784315 0.529907 -47.827283 0.000001 -0.000001 -0.000002 0.897176 0.281403 -6.120148 -5.866879 -2.276405 -61.295757 0.000001 -0.000001 -0.000000 0.000002 -0.000000 -0.000000 -0.198742 1.964395 -2.107704 -19.458449 12.835475 83.271071 0.000017 8.715242 -0.000527 33.105814 12.324341 -1.451164 4.227961 -31.750264 -8.559392 -11.843448 11.219316 -6.345876 -0.000000 -0.000001 0.000003 1.063780 -0.825006 9.915746 -0.108625 -1.274927 6.229761 -0.000001 0.000000 -0.000000 1.981635 -2.675696 13.450060 -1.399934 -0.059997 20.498610 0.000000 -0.000000 0.000001 2.405406 -2.489412 20.221926 -2.849133 0.112691 33.938312 -0.000001 0.000001 0.000002 2.834904 -2.165427 21.718395 -3.644331 -0.494823 43.612561 0.000001 -0.000001 0.000001 -0.000001 -0.000000 -0.000001 -0.000003 -0.000000 -0.000001 -0.000003 -0.000000 -0.000001 -0.000003 -0.000000 -0.000001 -0.000003 -0.000000 -0.000000 -0.000003 -0.000000 -0.000000 -0.000002 -0.000000 0.000000 -0.000003 -0.000000 -0.000001 -0.000003 -0.000000 -0.000001 -0.000003 -0.000000 -0.000000 -0.000001 -0.000000 0.000001 -0.000000 0.000000 -0.000000 -0.000000 0.000000 -0.000000 -0.000000 0.000000 -0.000000 
